<?xml version="1.0" encoding="UTF-8"?>
<svg version="1.1" xmlns="http://www.w3.org/2000/svg" width="379" height="92">
<path d="M0 0 C4.56824913 3.13528419 7.7076146 6.59280212 9.6875 11.8125 C10.19879927 15.3915949 10.34685726 18.35799875 10 22 C6.55406184 24.71141229 3.80509229 25.39091921 -0.51953125 25.51171875 C-1.54111328 25.54716797 -2.56269531 25.58261719 -3.61523438 25.61914062 C-4.67033203 25.64169922 -5.72542969 25.66425781 -6.8125 25.6875 C-7.88693359 25.72166016 -8.96136719 25.75582031 -10.06835938 25.79101562 C-12.71213533 25.87326643 -15.35558921 25.94249209 -18 26 C-12.79934907 28.26752774 -9.28833829 27.77753395 -3.7421875 26.99609375 C-1 27 -1 27 0.8359375 28.2890625 C2.67563643 30.99304952 2.51886634 32.82194367 2 36 C-1.99215186 40.10304497 -5.68171433 41.12982117 -11.25 41.25 C-17.39882433 41.15898122 -22.03136407 39.65544385 -26.75 35.6875 C-32.75338804 28.5167865 -34.7744196 23.2367138 -34 14 C-32.01106096 7.71913987 -28.84446354 3.01193762 -23.4375 -0.8125 C-15.86777183 -4.50031629 -7.29404285 -4.06783159 0 0 Z M-20 14 C-14.39 14 -8.78 14 -3 14 C-7.25884484 8.78816739 -7.25884484 8.78816739 -11.5 8.375 C-15.74115516 8.78816739 -15.74115516 8.78816739 -20 14 Z " fill="#F5B814" transform="translate(177,36)"/>
<path d="M0 0 C7.30242157 4.07250434 10.75405207 7.83313059 13.25 15.8125 C13.78741095 19.7683372 13.81145521 23.63809354 13.75 27.625 C13.76546875 28.64787109 13.7809375 29.67074219 13.796875 30.72460938 C13.75831063 38.08558397 13.75831063 38.08558397 11.37890625 41.48828125 C8.73851329 43.13065412 7.30852987 43.28304306 4.25 42.8125 C3.26 42.1525 2.27 41.4925 1.25 40.8125 C-0.75461299 41.46516469 -2.75379834 42.13454472 -4.75 42.8125 C-11.5598088 43.36167813 -17.14864032 42.53512792 -22.703125 38.3359375 C-28.23024753 33.25005585 -30.73674923 27.91253686 -31.25 20.4375 C-31.00974864 14.87327847 -29.03783784 10.27186626 -25.75 5.8125 C-18.02132708 -0.87395258 -9.86948999 -3.1253385 0 0 Z M-17.75 16.8125 C-18.44151325 21.11524909 -18.26557405 23.02195312 -15.875 26.6875 C-13.1626761 29.3998239 -12.28758847 29.75164093 -8.4375 30.1875 C-4.67138718 30.10024245 -4.67138718 30.10024245 -1.8125 27.8125 C0.48047397 24.47726514 1.01173735 22.71242945 0.7265625 18.75 C-0.14723159 15.19752568 -1.7661717 13.80171886 -4.75 11.8125 C-10.58304665 10.37775869 -14.30474734 11.75228516 -17.75 16.8125 Z " fill="#111111" transform="translate(81.75,34.1875)"/>
<path d="M0 0 C0.95390625 -0.00322266 1.9078125 -0.00644531 2.890625 -0.00976562 C9.97390731 0.04510487 9.97390731 0.04510487 13.375 2.3125 C14.59180409 5.02690912 14.43143565 6.13916194 13.5 9 C12.375 11.3125 12.375 11.3125 11.375 12.3125 C8.51622091 12.54951239 5.67616703 12.73469182 2.8125 12.875 C2.00619141 12.91818359 1.19988281 12.96136719 0.36914062 13.00585938 C-1.62868805 13.11225262 -3.6268207 13.21290888 -5.625 13.3125 C-5.955 13.9725 -6.285 14.6325 -6.625 15.3125 C-5.82835937 15.27769531 -5.03171875 15.24289063 -4.2109375 15.20703125 C6.85735294 14.92426471 6.85735294 14.92426471 11.375 18.3125 C14.54505981 22.16797815 16.17057348 25.30405014 16.375 30.3125 C15.59945252 35.74133236 13.79785812 38.66410482 9.6796875 42.05566406 C4.9944169 44.61072477 -0.17318037 44.08714959 -5.375 43.9375 C-6.51066406 43.94394531 -7.64632813 43.95039062 -8.81640625 43.95703125 C-17.08422777 43.84914746 -17.08422777 43.84914746 -19.48144531 41.47021484 C-21.09746834 38.42102365 -20.54480563 36.56719683 -19.625 33.3125 C-17.18585508 30.87335508 -16.41053569 31.02587477 -13.0546875 30.8984375 C-12.15878906 30.85976563 -11.26289063 30.82109375 -10.33984375 30.78125 C-9.40269531 30.7503125 -8.46554688 30.719375 -7.5 30.6875 C-6.08267578 30.62949219 -6.08267578 30.62949219 -4.63671875 30.5703125 C-2.29967625 30.47588654 0.03735501 30.39031606 2.375 30.3125 C2.705 29.6525 3.035 28.9925 3.375 28.3125 C2.57835938 28.34730469 1.78171875 28.38210937 0.9609375 28.41796875 C-9.95687454 28.69689096 -9.95687454 28.69689096 -14.625 25.3125 C-18.71626246 20.88951355 -19.99561749 17.4519895 -19.90625 11.375 C-19.3226239 7.09507529 -16.86593548 4.3453891 -13.64453125 1.6640625 C-9.13380513 -0.35496886 -4.88218289 -0.08314344 0 0 Z " fill="#0F0F0F" transform="translate(32.625,32.6875)"/>
<path d="M0 0 C1.875 1 1.875 1 3 3 C3.24131207 5.71878263 3.1347929 8.2592111 3 11 C3.95261719 10.96519531 4.90523438 10.93039063 5.88671875 10.89453125 C7.14097656 10.86746094 8.39523437 10.84039062 9.6875 10.8125 C10.92886719 10.77769531 12.17023438 10.74289063 13.44921875 10.70703125 C17.22204963 11.01832093 19.03549505 11.69976375 22 14 C23.0625 16.375 23.0625 16.375 23 19 C21.51171875 21.64453125 21.51171875 21.64453125 19 24 C16.03327323 24.37233017 13.68143759 24.4808246 10.75 24.3125 C10.00492187 24.28994141 9.25984375 24.26738281 8.4921875 24.24414062 C6.660591 24.18543561 4.83003347 24.09575757 3 24 C3.08760589 26.06326977 3.19579273 28.1256716 3.3125 30.1875 C3.37050781 31.33605469 3.42851562 32.48460937 3.48828125 33.66796875 C4.02764249 37.17999272 4.8994723 39.16299098 7 42 C10.07194908 43.53597454 12.60244293 43.2265038 16 43 C17.03125 42.46375 18.0625 41.9275 19.125 41.375 C22 40 22 40 24.75 40.625 C27 42 27 42 29 45 C29 47.375 29 47.375 28 50 C23.27994842 54.61277768 19.31298284 57.02239607 12.75 57.375 C6.7861218 57.20630461 1.78601827 55.34292604 -2.79296875 51.4921875 C-10.45827527 43.35371391 -10.45926035 33.442911 -10.33618164 22.86889648 C-10.31235995 20.67459987 -10.31566704 18.48150457 -10.32226562 16.28710938 C-10.2748386 4.33217917 -10.2748386 4.33217917 -8 1 C-5.20129973 -0.39935013 -3.09501208 -0.25265405 0 0 Z " fill="#F5B915" transform="translate(279,20)"/>
<path d="M0 0 C1.875 1 1.875 1 3 3 C3.24131207 5.71878263 3.1347929 8.2592111 3 11 C3.95261719 10.96519531 4.90523437 10.93039063 5.88671875 10.89453125 C7.14097656 10.86746094 8.39523438 10.84039062 9.6875 10.8125 C10.92886719 10.77769531 12.17023438 10.74289063 13.44921875 10.70703125 C17.22204963 11.01832093 19.03549505 11.69976375 22 14 C23.0625 16.375 23.0625 16.375 23 19 C21.51171875 21.64453125 21.51171875 21.64453125 19 24 C16.03327323 24.37233017 13.68143759 24.4808246 10.75 24.3125 C10.00492188 24.28994141 9.25984375 24.26738281 8.4921875 24.24414062 C6.660591 24.18543561 4.83003347 24.09575757 3 24 C3.08760589 26.06326977 3.19579273 28.1256716 3.3125 30.1875 C3.37050781 31.33605469 3.42851563 32.48460937 3.48828125 33.66796875 C4.02764249 37.17999272 4.8994723 39.16299098 7 42 C10.07194908 43.53597454 12.60244293 43.2265038 16 43 C17.03125 42.46375 18.0625 41.9275 19.125 41.375 C22 40 22 40 24.75 40.625 C27 42 27 42 29 45 C29 47.375 29 47.375 28 50 C23.27994842 54.61277768 19.31298284 57.02239607 12.75 57.375 C6.7861218 57.20630461 1.78601827 55.34292604 -2.79296875 51.4921875 C-10.45827527 43.35371391 -10.45926035 33.442911 -10.33618164 22.86889648 C-10.31235995 20.67459987 -10.31566704 18.48150457 -10.32226562 16.28710938 C-10.2748386 4.33217917 -10.2748386 4.33217917 -8 1 C-5.20129973 -0.39935013 -3.09501208 -0.25265405 0 0 Z " fill="#151515" transform="translate(112,20)"/>
<path d="M0 0 C3.87905226 2.77572901 6.82939366 6.01045282 9.609375 9.8671875 C8.859375 11.8046875 8.859375 11.8046875 7.609375 13.8671875 C5.484375 14.6171875 5.484375 14.6171875 3.609375 14.8671875 C3.2690625 14.40828125 2.92875 13.949375 2.578125 13.4765625 C-1.94899122 7.74542601 -6.08012706 4.45222307 -13.44140625 3.453125 C-21.03560044 3.1140188 -27.30628482 4.10075494 -33.390625 8.8671875 C-39.12144452 15.44008662 -40.84138849 21.31750176 -40.7265625 29.91796875 C-39.95074143 36.72895604 -36.83522157 42.09288131 -31.515625 46.3671875 C-25.85270362 50.12830227 -20.16511079 51.55611826 -13.390625 50.8671875 C-7.19439141 49.06765341 -2.61970299 46.88921761 1.609375 41.8671875 C2.269375 41.2071875 2.929375 40.5471875 3.609375 39.8671875 C6.234375 40.2421875 6.234375 40.2421875 8.609375 40.8671875 C9.359375 42.5546875 9.359375 42.5546875 9.609375 44.8671875 C5.82257828 51.40801819 -1.44270564 55.45218919 -8.453125 57.7421875 C-16.5882527 59.8480449 -23.6392268 59.24415323 -31.390625 55.8671875 C-39.9596091 50.77547231 -45.7373285 43.49141755 -48.390625 33.8671875 C-49.42547408 23.15582753 -48.00088777 14.2042314 -41.1953125 5.72265625 C-30.10014125 -5.68471679 -13.81631429 -7.8043505 0 0 Z " fill="#F6BB1E" transform="translate(359.390625,23.1328125)"/>
<path d="M0 0 C2.4375 1.25 2.4375 1.25 4.4375 4.25 C4.7159729 6.1672821 4.7159729 6.1672821 4.75634766 8.35424805 C4.77621735 9.17487228 4.79608704 9.99549652 4.81655884 10.84098816 C4.82811005 11.72232925 4.83966125 12.60367035 4.8515625 13.51171875 C4.87092865 14.41751175 4.8902948 15.32330475 4.9102478 16.25654602 C4.97003542 19.15010151 5.01642568 22.0436968 5.0625 24.9375 C5.10068054 26.89910591 5.13973231 28.86069506 5.1796875 30.82226562 C5.27573632 35.6313744 5.35977043 40.44056166 5.4375 45.25 C6.571875 45.724375 7.70625 46.19875 8.875 46.6875 C12.4375 48.25 12.4375 48.25 13.4375 49.25 C13.9048422 54.62443536 13.9048422 54.62443536 12.19140625 56.91796875 C9.43406874 59.0120714 7.08033481 58.72012119 3.72265625 58.60546875 C-0.69778344 57.9178448 -3.45454869 55.47256696 -6.375 52.25 C-8.33926695 48.94176092 -8.68784714 45.8045772 -8.72363281 42.00390625 C-8.73324036 41.17624756 -8.7428479 40.34858887 -8.75274658 39.49584961 C-8.75699646 38.61034424 -8.76124634 37.72483887 -8.765625 36.8125 C-8.77132507 35.8954126 -8.77702515 34.9783252 -8.78289795 34.03344727 C-8.79233128 32.09685414 -8.7988753 30.16024507 -8.80273438 28.22363281 C-8.81246458 25.2607848 -8.84351347 22.29862354 -8.875 19.3359375 C-8.88152807 17.45312911 -8.88677931 15.57031578 -8.890625 13.6875 C-8.9029718 12.80199463 -8.9153186 11.91648926 -8.92803955 11.00415039 C-8.90590981 4.90109494 -8.90590981 4.90109494 -7.22949219 1.72265625 C-4.71023843 -0.50290594 -3.23264378 -0.94613964 0 0 Z " fill="#F5B918" transform="translate(230.5625,17.75)"/>
<path d="M0 0 C2.4375 1.25 2.4375 1.25 4.4375 4.25 C4.7159729 6.1672821 4.7159729 6.1672821 4.75634766 8.35424805 C4.77621735 9.17487228 4.79608704 9.99549652 4.81655884 10.84098816 C4.82811005 11.72232925 4.83966125 12.60367035 4.8515625 13.51171875 C4.87092865 14.41751175 4.8902948 15.32330475 4.9102478 16.25654602 C4.97003542 19.15010151 5.01642568 22.0436968 5.0625 24.9375 C5.10068054 26.89910591 5.13973231 28.86069506 5.1796875 30.82226562 C5.27573632 35.6313744 5.35977043 40.44056166 5.4375 45.25 C6.571875 45.724375 7.70625 46.19875 8.875 46.6875 C12.4375 48.25 12.4375 48.25 13.4375 49.25 C13.9048422 54.62443536 13.9048422 54.62443536 12.19140625 56.91796875 C9.43406874 59.0120714 7.08033481 58.72012119 3.72265625 58.60546875 C-0.69778344 57.9178448 -3.45454869 55.47256696 -6.375 52.25 C-8.33926695 48.94176092 -8.68784714 45.8045772 -8.72363281 42.00390625 C-8.73324036 41.17624756 -8.7428479 40.34858887 -8.75274658 39.49584961 C-8.75699646 38.61034424 -8.76124634 37.72483887 -8.765625 36.8125 C-8.77132507 35.8954126 -8.77702515 34.9783252 -8.78289795 34.03344727 C-8.79233128 32.09685414 -8.7988753 30.16024507 -8.80273438 28.22363281 C-8.81246458 25.2607848 -8.84351347 22.29862354 -8.875 19.3359375 C-8.88152807 17.45312911 -8.88677931 15.57031578 -8.890625 13.6875 C-8.9029718 12.80199463 -8.9153186 11.91648926 -8.92803955 11.00415039 C-8.90590981 4.90109494 -8.90590981 4.90109494 -7.22949219 1.72265625 C-4.71023843 -0.50290594 -3.23264378 -0.94613964 0 0 Z " fill="#F5B918" transform="translate(202.5625,17.75)"/>
<path d="M0 0 C3.47970871 1.90399156 5.79181796 3.75712783 8.3125 6.8125 C8.3125 7.8025 8.3125 8.7925 8.3125 9.8125 C5.3125 11.8125 5.3125 11.8125 2.3125 11.8125 C1.77625 11.173125 1.24 10.53375 0.6875 9.875 C-2.32926246 7.25517997 -4.51325718 6.91969637 -8.43359375 6.6484375 C-12.09408843 6.91488599 -14.04437333 8.36277284 -16.6875 10.8125 C-18.61443706 13.91235526 -18.69350905 15.64424654 -18.5625 19.3125 C-17.60830906 23.12926375 -16.40584365 25.0117823 -13.6875 27.8125 C-10.49917307 29.40666347 -7.15753427 29.19954228 -3.6875 28.8125 C-0.88582713 27.54916727 -0.88582713 27.54916727 1.3125 25.8125 C2.3025 25.1525 3.2925 24.4925 4.3125 23.8125 C6.7875 25.7925 6.7875 25.7925 9.3125 27.8125 C6.0472918 32.13409909 3.60064226 35.04978591 -1.6875 36.8125 C-8.85608014 37.69094931 -13.90016118 37.21087751 -19.6875 32.8125 C-24.11564507 28.38435493 -26.61764412 24.23088443 -26.71875 17.8359375 C-26.27222407 12.05342668 -24.37758424 7.183941 -19.97265625 3.30078125 C-13.58297972 -1.41380037 -7.60576382 -2.44931377 0 0 Z " fill="#F6BC1F" transform="translate(349.6875,32.1875)"/>
<path d="M0 0 C2.55949546 1.85342775 2.97918798 2.93756393 4 6 C4.22863301 10.53871157 4.22829025 15.0797901 4.24023438 19.62353516 C4.24993528 21.86007953 4.28096772 24.09570261 4.3125 26.33203125 C4.31903116 27.76041123 4.32428119 29.18879776 4.328125 30.6171875 C4.34214355 32.56020752 4.34214355 32.56020752 4.35644531 34.54248047 C3.97628873 38.22999929 3.28432995 40.10870628 1 43 C-1.9375 44.0625 -1.9375 44.0625 -5 44 C-7.16040039 42.51977539 -7.16040039 42.51977539 -9 40 C-9.38560954 37.07706095 -9.53816888 34.53974228 -9.49609375 31.62109375 C-9.49754898 30.8126149 -9.49900421 30.00413605 -9.50050354 29.17115784 C-9.4988466 27.46571236 -9.48730811 25.76025162 -9.46655273 24.05493164 C-9.43755969 21.44287773 -9.44595438 18.83284923 -9.45898438 16.22070312 C-9.45274782 14.56249013 -9.44435752 12.90428354 -9.43359375 11.24609375 C-9.43652939 10.46479599 -9.43946503 9.68349823 -9.44248962 8.87852478 C-9.34906229 3.51904488 -9.34906229 3.51904488 -7.66040039 1.00805664 C-5.03234953 -0.58747666 -2.99405602 -0.374257 0 0 Z " fill="#F6BA19" transform="translate(258,33)"/>
<path d="M0 0 C2.38460953 2.07691798 2.8959746 3.40556916 3.4375 6.5 C3 9 3 9 1.4375 11.375 C-1 13 -1 13 -4.625 12.875 C-8 12 -8 12 -10 10 C-10.54587156 3.99541284 -10.54587156 3.99541284 -8.9375 1.0625 C-5.84506242 -0.63335287 -3.44485259 -0.43060657 0 0 Z " fill="#F6BB1E" transform="translate(259,17)"/>
<path d="M0 0 C2.37466282 2.06825471 2.88685647 3.43428235 3.5 6.5 C3 9 3 9 0.875 11.375 C-2 13 -2 13 -5.1875 12.9375 C-8 12 -8 12 -10 9 C-10.32162076 5.9124407 -10.48724515 3.85984439 -8.9375 1.125 C-5.85928089 -0.66235303 -3.47093932 -0.43386742 0 0 Z " fill="#F6BB1E" transform="translate(346,44)"/>
<path d="M0 0 C0.66 0.33 1.32 0.66 2 1 C-0.64 3.64 -3.28 6.28 -6 9 C-6 6 -6 6 -3.5625 3.375 C-2.716875 2.59125 -1.87125 1.8075 -1 1 C-0.67 0.67 -0.34 0.34 0 0 Z " fill="#4B4B4B" transform="translate(61,36)"/>
<path d="M0 0 C0.66 0.33 1.32 0.66 2 1 C-0.31 3.31 -2.62 5.62 -5 8 C-5.33 7.34 -5.66 6.68 -6 6 C-2.25 1.125 -2.25 1.125 0 0 Z " fill="#4F4F4F" transform="translate(20,34)"/>
</svg>
