<?xml version="1.0" standalone="no"?>
<!DOCTYPE svg PUBLIC "-//W3C//DTD SVG 20010904//EN"
 "http://www.w3.org/TR/2001/REC-SVG-20010904/DTD/svg10.dtd">
<svg version="1.0" xmlns="http://www.w3.org/2000/svg"
 width="500.000000pt" height="500.000000pt" viewBox="0 0 500.000000 500.000000"
 preserveAspectRatio="xMidYMid meet">

<g transform="translate(0.000000,500.000000) scale(0.100000,-0.100000)"
fill="#000000" stroke="none">
<path d="M1746 2821 c-15 -17 -17 -41 -14 -213 l3 -195 29 -42 c78 -112 243
-132 321 -39 31 37 29 64 -7 91 l-27 20 -36 -22 c-48 -28 -97 -27 -131 2 -24
21 -27 32 -32 100 l-5 77 75 0 c61 0 80 4 102 21 30 24 33 48 9 78 -15 17 -31
21 -98 23 l-80 3 -3 40 c-2 22 -11 48 -19 58 -21 23 -66 22 -87 -2z"/>
<path d="M2644 2610 c0 -107 2 -151 3 -97 2 53 2 141 0 195 -1 53 -3 9 -3 -98z"/>
<path d="M2924 2610 c0 -107 2 -151 3 -97 2 53 2 141 0 195 -1 53 -3 9 -3 -98z"/>
<path d="M3553 2723 c20 -2 54 -2 75 0 20 2 3 4 -38 4 -41 0 -58 -2 -37 -4z"/>
<path d="M3879 2703 l-24 -28 28 24 c25 23 32 31 24 31 -2 0 -14 -12 -28 -27z"/>
<path d="M4068 2723 c7 -3 16 -2 19 1 4 3 -2 6 -13 5 -11 0 -14 -3 -6 -6z"/>
<path d="M914 2700 c-31 -12 -72 -66 -80 -104 -4 -24 0 -48 15 -80 25 -57 78
-85 159 -86 38 0 52 -4 50 -12 -3 -9 -37 -15 -106 -18 -59 -3 -106 -10 -113
-17 -15 -15 -14 -70 2 -89 9 -11 40 -14 136 -14 l125 0 38 38 c51 51 59 98 28
160 -29 59 -71 82 -151 82 -43 0 -58 3 -55 13 3 8 35 14 94 17 82 5 89 7 101
30 14 28 8 59 -15 78 -18 14 -194 16 -228 2z"/>
<path d="M1350 2695 c-172 -78 -179 -315 -13 -399 49 -25 112 -30 159 -14 35
12 44 13 60 1 26 -19 51 -16 75 8 19 19 20 30 17 148 -3 120 -5 130 -31 169
-41 63 -94 93 -169 98 -44 3 -74 0 -98 -11z m156 -148 c75 -89 -55 -200 -137
-118 -53 54 -30 131 46 152 34 9 64 -2 91 -34z"/>
<path d="M2189 2643 c-13 -16 -12 -17 4 -4 9 7 17 15 17 17 0 8 -8 3 -21 -13z"/>
<path d="M4220 2626 c0 -2 8 -10 18 -17 15 -13 16 -12 3 4 -13 16 -21 21 -21
13z"/>
<path d="M4098 2543 c7 -3 16 -2 19 1 4 3 -2 6 -13 5 -11 0 -14 -3 -6 -6z"/>
<path d="M3912 2480 c0 -14 2 -19 5 -12 2 6 2 18 0 25 -3 6 -5 1 -5 -13z"/>
<path d="M2333 2433 c37 -2 96 -2 130 0 34 2 4 3 -68 3 -71 0 -99 -1 -62 -3z"/>
<path d="M4098 2413 c7 -3 16 -2 19 1 4 3 -2 6 -13 5 -11 0 -14 -3 -6 -6z"/>
<path d="M4229 2343 c-13 -16 -12 -17 4 -4 16 13 21 21 13 21 -2 0 -10 -8 -17
-17z"/>
<path d="M4269 2303 l-24 -28 28 24 c25 23 32 31 24 31 -2 0 -14 -12 -28 -27z"/>
<path d="M3880 2255 c13 -14 26 -25 28 -25 3 0 -5 11 -18 25 -13 14 -26 25
-28 25 -3 0 5 -11 18 -25z"/>
<path d="M4118 2233 c7 -3 16 -2 19 1 4 3 -2 6 -13 5 -11 0 -14 -3 -6 -6z"/>
</g>
</svg>
