<?xml version="1.0" standalone="no"?>
<!DOCTYPE svg PUBLIC "-//W3C//DTD SVG 20010904//EN"
 "http://www.w3.org/TR/2001/REC-SVG-20010904/DTD/svg10.dtd">
<svg version="1.0" xmlns="http://www.w3.org/2000/svg"
 width="500.000000pt" height="500.000000pt" viewBox="0 0 500.000000 500.000000"
 preserveAspectRatio="xMidYMid meet">

<g transform="translate(0.000000,500.000000) scale(0.100000,-0.100000)"
fill="#000000" stroke="none">
<path d="M1744 2805 c-14 -21 -16 -50 -13 -198 4 -167 5 -174 32 -220 64 -109
215 -142 302 -65 38 33 45 67 19 92 -21 21 -43 20 -79 -4 -44 -29 -91 -26
-126 9 -27 28 -29 34 -29 110 l0 81 79 0 c87 0 111 12 111 55 0 39 -35 55
-117 55 l-73 0 0 33 c0 72 -70 106 -106 52z"/>
<path d="M884 2667 c-28 -26 -37 -42 -41 -77 -9 -92 53 -150 159 -150 61 0 82
-15 53 -37 -13 -9 -50 -13 -112 -13 -83 0 -93 -2 -103 -21 -16 -30 -4 -68 26
-79 33 -13 169 -13 215 0 78 22 115 96 88 174 -21 58 -57 80 -142 86 -58 4
-72 8 -75 23 -3 15 6 17 72 17 41 0 86 4 100 10 30 11 42 49 26 79 -10 19 -19
21 -120 21 l-110 0 -36 -33z"/>
<path d="M1339 2680 c-123 -65 -155 -218 -68 -324 54 -65 149 -92 228 -65 25
9 38 9 56 -1 33 -18 74 -5 86 28 7 16 9 68 6 128 -5 107 -22 158 -69 201 -57
54 -170 69 -239 33z m162 -118 c95 -85 -32 -229 -130 -146 -39 33 -49 82 -25
123 34 57 104 68 155 23z"/>
</g>
</svg>
